# xmcd
#
# Track frame offsets:
# 150
# 20593
# 39930
# 59364
# 75430
# 88928
# 107026
# 123204
# 146321
# 162986
# 182692
# 196050
# 210488
# 223980
# 244202
# 258079
# 276394
# 299821
# 316326
# 331792
#
# Disc length: 4642 seconds
#
#
# Revision: 0
# Processed by: cddbd v1.5.2PL0 Copyright (c) Steve Scherf et al.
# Submitted via: FreeRIP 2.90 
#
DISCID=24122014
DTITLE=Pop Piano Ballads CD2 - Hage
DYEAR=1900
DGENRE=Ballad
TTITLE0=Aicha
TTITLE1=I Believe
TTITLE2=I Belong To You
TTITLE3=I Still Burn
TTITLE4=Imagine
TTITLE5=Leningrad
TTITLE6=Just More
TTITLE7=Killing Me Softly
TTITLE8=Liebe Ist
TTITLE9=Nights In White Satin
TTITLE10=Mad World
TTITLE11=Mandy
TTITLE12=San Francisco
TTITLE13=Streets Of London
TTITLE14=We Are The Champions
TTITLE15=We Have A Dream
TTITLE16=Wind Of Change
TTITLE17=Without You
TTITLE18=You're Beautiful
TTITLE19=Underneath Your Clothes
EXTD=
EXTT0=
EXTT1=
EXTT2=
EXTT3=
EXTT4=
EXTT5=
EXTT6=
EXTT7=
EXTT8=
EXTT9=
EXTT10=
EXTT11=
EXTT12=
EXTT13=
EXTT14=
EXTT15=
EXTT16=
EXTT17=
EXTT18=
EXTT19=
PLAYORDER=
